<svg width="116" height="80" viewBox="0 0 116 80" fill="none" xmlns="http://www.w3.org/2000/svg">
<path d="M28.8647 3.45075C27.6455 3.6911 27.4395 3.98294 27.5597 5.322C27.6284 5.94003 27.7142 6.57522 27.7657 6.76406C27.8516 7.07307 27.7657 7.07307 26.1688 6.9529C25.2244 6.86706 24.3143 6.79839 24.1255 6.79839C23.9366 6.78123 23.6962 6.72972 23.576 6.64389C23.3699 6.50655 22.8204 6.66106 22.6487 6.91857C22.5972 6.98724 22.2023 7.14174 21.7902 7.22758C19.9185 7.6396 15.1964 9.52801 14.0803 10.3005C13.8399 10.4722 13.1187 10.6954 12.449 10.8156C9.66731 11.2619 6.35327 12.2061 6.35327 12.5495C6.35327 12.6353 6.54215 12.704 6.78255 12.704C7.1088 12.704 7.29769 12.8756 7.55525 13.4078L7.91585 14.0945L8.84309 13.9915C9.75317 13.8714 9.78751 13.8885 9.95922 14.3349C10.0794 14.6439 10.2168 14.7641 10.4057 14.6954C10.5946 14.6267 10.7491 14.7812 10.938 15.2447C11.2471 16.0173 11.9167 16.9271 12.3288 17.1503C12.5177 17.2533 13.1531 17.219 14.0631 17.0817C15.4368 16.8585 15.5399 16.8585 15.9348 17.1847C16.4671 17.5967 16.7934 17.5967 17.3428 17.2018C17.6691 16.9787 18.3731 16.8756 20.468 16.7383L23.181 16.5666L24.8466 17.8199C25.7739 18.5237 26.8557 19.2791 27.2678 19.5194C27.6799 19.7598 27.989 20.0688 27.989 20.2576C27.989 20.4121 28.2294 21.116 28.5213 21.8199C29.1051 23.2276 29.9808 27.0902 29.7576 27.3134C29.6889 27.3821 28.7788 27.8799 27.7314 28.4293C26.7011 28.9615 25.7567 29.4937 25.6709 29.6138C25.5678 29.734 24.9497 30.1289 24.2972 30.4894C23.6275 30.8499 22.8891 31.2791 22.6316 31.4508C22.3568 31.6396 22.1508 31.7083 22.1508 31.6053C22.1508 31.5194 22.3053 31.3821 22.4942 31.3306C23.1124 31.1417 22.8548 30.9357 22.1164 31.0216C19.4721 31.3134 18.6135 31.8113 16.0893 34.5065C14.6126 36.1031 12.0713 39.5709 11.3673 40.9615C10.6289 42.4035 10.1653 44.3263 9.71882 47.7769C9.68448 48.0516 9.6158 48.3091 9.56428 48.3606C9.51277 48.4121 9.06632 48.3606 8.56835 48.2576C7.60677 48.0516 7.45223 48.0859 7.60677 48.4808C7.7098 48.7555 8.74007 49.0988 9.46126 49.0988C9.87337 49.0988 9.92488 49.1847 10.2168 50.4207C10.6976 52.4636 11.9854 55.8799 12.7925 57.2018C12.9127 57.4078 14.0116 57.7168 16.6903 58.2662C18.7337 58.7126 20.5367 59.1074 20.674 59.1589C21.0175 59.2962 21.0175 58.9701 20.6912 56.8241C20.4508 55.2619 20.3134 51.2276 20.4852 51.0387C20.5367 51.0044 21.5154 51.1417 22.6659 51.3821L24.7608 51.8113L24.8982 51.4336C24.9668 51.2447 24.984 51.0216 24.9153 50.9701C24.8638 50.9014 23.8507 50.6782 22.6659 50.4722C21.4811 50.2662 20.5023 50.0774 20.4852 50.0602C20.468 50.043 20.5882 49.7168 20.7771 49.3392C20.9488 48.9787 21.3781 47.9658 21.7215 47.1246C22.3912 45.4937 23.0265 44.292 24.0053 42.7812C24.5032 42.0259 24.7093 41.8542 25.3446 41.6997C25.9971 41.528 26.1001 41.4422 26.1001 41.0473C26.1001 40.3778 26.8728 36.1203 27.4738 33.4937C27.7486 32.2405 27.989 31.0902 27.989 30.9529C27.989 30.7126 27.7314 30.6954 26.0658 30.7984L24.1255 30.9186L24.8638 30.4722C25.2588 30.2147 25.6537 30.0774 25.7567 30.1289C25.8426 30.1804 26.1001 30.1289 26.3062 29.9915C26.5294 29.8542 27.4567 29.3563 28.3839 28.8585L30.0495 27.9829L30.2041 28.3778C30.2899 28.601 30.5475 28.9958 30.7879 29.2877C31.0111 29.5623 31.2515 29.9572 31.3202 30.1632C31.4404 30.5237 31.3889 30.5581 30.702 30.5581C30.2899 30.5581 29.6889 30.6096 29.3455 30.6611C28.7273 30.7641 28.7102 30.7984 28.3496 32.0001C28.1607 32.6696 27.8344 34.0602 27.6455 35.1074C27.4395 36.1375 27.2163 37.322 27.1304 37.7168C27.0274 38.1117 26.9587 39.0902 26.9587 39.8799V41.3392L27.5253 41.425C27.8173 41.4593 28.1092 41.4765 28.1263 41.4593C28.1607 41.425 28.0233 41.1675 27.8173 40.8756C27.4738 40.4293 27.4395 40.2405 27.5425 39.2791C27.7657 37.1675 27.8688 36.5666 27.9718 36.5666C28.2809 36.5666 29.0536 38.2319 29.2768 39.3478C29.6031 40.8756 29.8435 41.4765 30.0495 41.2705C30.2556 41.0645 29.8091 38.7641 29.3798 37.94C29.2253 37.6138 28.8304 36.9443 28.5213 36.4636L27.9718 35.5881L28.2294 34.4035C28.3839 33.7512 28.6071 32.8241 28.7273 32.3606L28.9677 31.5023L29.9121 31.4508L30.8737 31.3993L30.9939 32.0516C31.2343 33.3392 32.6767 35.6911 33.2262 35.7083C33.9474 35.7083 36.6261 35.1932 36.8493 35.0044C37.0554 34.8327 38.1887 32.91 38.824 31.6739L39.0816 31.1589L41.4684 31.0387C42.7905 30.9701 44.2329 30.9529 44.6794 31.0044C45.5894 31.1074 45.8298 31.3993 46.9631 33.631L47.5813 34.8671L48.7318 34.7641C49.3671 34.6954 49.9337 34.6096 50.0196 34.5581C50.0883 34.5237 50.1398 33.7168 50.1398 32.7726C50.1398 31.8456 50.1913 31.0731 50.2428 31.0731C50.7751 31.0731 53.4023 33.3392 53.4023 33.8027C53.4023 33.8714 52.87 33.8885 52.2347 33.8542C51.3074 33.8027 51.0155 33.837 50.8267 34.0774C50.6206 34.3177 50.6721 34.4379 51.2388 34.9872L51.8913 35.6224L51.6165 35.0731C51.462 34.7641 51.3418 34.4722 51.3418 34.4035C51.3418 34.1975 53.8316 34.5065 53.969 34.7297C54.2265 35.1074 56.2871 38.6954 56.7335 39.5194L57.18 40.3435L63.8424 40.3263C70.024 40.3091 70.4361 40.292 69.6291 40.0516C69.0625 39.8799 67.6716 39.7598 65.5939 39.7083C62.6919 39.6224 62.3657 39.5881 61.7304 39.2276C61.3526 39.0044 60.7173 38.7812 60.3223 38.7126C59.6698 38.6096 59.4981 38.4722 58.7426 37.4422C58.2789 36.807 57.2315 35.5881 56.4245 34.7297C55.6174 33.8714 54.9477 33.116 54.9477 33.0473C54.9477 32.9787 55.5659 32.9615 56.3214 33.0302C57.077 33.0817 57.6951 33.116 57.6951 33.0645C57.6951 33.0302 57.3174 32.7555 56.8709 32.4636C56.4073 32.1718 55.875 31.7426 55.6518 31.5194L55.2568 31.1074L58.3305 31.1932C61.1809 31.2791 61.4728 31.3134 62.7606 31.7941C65.1818 32.704 72.7714 36.4465 76.3946 38.5237C78.3177 39.6224 80.0177 40.5151 80.1722 40.4808C80.4126 40.4293 78.7813 39.4679 73.6643 36.6696C71.93 35.7083 65.903 32.807 63.7909 31.9143C61.7304 31.0387 60.8375 30.9357 54.5528 30.8156C52.0801 30.7641 50.157 30.6611 49.9681 30.5581C49.453 30.2834 49.3499 29.5795 49.762 29.1332C50.2772 28.5666 50.4145 28.2061 50.8095 26.5237C51.3933 24.1375 52.166 21.4765 52.6468 20.292C53.3336 18.6611 53.7114 18.4207 59.0688 16.1375C60.4425 15.5366 61.7132 15.0559 61.9021 15.0559C62.091 15.0559 63.3444 15.1589 64.701 15.2791C66.6585 15.4679 67.1221 15.5709 67.0534 15.7598C66.813 16.3778 66.7787 16.8241 66.9504 17.1332C67.1736 17.5623 69.1827 18.0945 70.0412 17.94C70.3846 17.8885 71.4321 17.7855 72.3593 17.6997C73.7845 17.5795 74.1451 17.5967 74.5401 17.837C74.935 18.0602 75.0895 18.0774 75.3299 17.9057C75.5017 17.7855 76.3774 17.3048 77.2703 16.807C78.1632 16.3263 79.245 15.6396 79.6742 15.2791C80.3268 14.7297 80.6702 14.5924 81.8035 14.4035C82.9368 14.2147 83.16 14.1117 83.2974 13.7855C83.3832 13.5452 83.5893 13.3907 83.7953 13.3907C84.0186 13.3907 84.2761 13.1675 84.4994 12.807C84.8599 12.189 85.3236 12.0173 86.5599 12.0173C87.0922 12.0173 87.2296 11.9486 87.2296 11.7083C87.2296 11.0559 85.066 9.56234 82.6449 8.54947C81.9065 8.24045 81.1681 7.8456 80.9964 7.67393C80.8247 7.50226 80.6187 7.41642 80.5328 7.46792C80.447 7.51942 79.6056 7.6911 78.6783 7.82844C77.7511 7.96578 76.3774 8.25762 75.6218 8.46363C74.3855 8.82415 74.231 8.90998 73.9734 9.45934C73.7158 10.0087 73.5956 10.0774 72.3422 10.3692C69.715 10.9872 63.3273 13.4078 57.9527 15.8284C53.8488 17.6825 52.1145 18.6267 51.668 19.2447C51.1701 19.9658 49.9337 24.4293 49.1095 28.5838C48.9035 29.6138 48.6459 30.5237 48.5257 30.5924C48.4227 30.6611 46.3278 30.7297 43.8723 30.7297H39.4078L39.4593 29.9915C39.528 29.0988 38.6866 25.0473 37.7937 21.9057C37.4331 20.6525 37.0897 19.0387 37.021 18.249C36.8321 15.9143 35.6988 12.8928 34.1706 10.6267C33.81 10.1117 33.3979 9.39067 33.2434 9.03015C33.0888 8.66964 32.8312 8.34346 32.6767 8.30912C32.4535 8.24045 32.1272 7.58809 31.6293 6.18037C31.2172 5.04732 30.7192 3.93144 30.5303 3.6911C30.1697 3.22758 30.0495 3.21041 28.8647 3.45075ZM18.4418 10.0602C18.6822 10.6782 18.5448 11.1589 18.1155 11.2619C17.4974 11.4164 17.2226 11.2619 17.1196 10.6954C17.0509 10.3692 17.1024 10.146 17.3085 9.99153C17.6863 9.69968 18.3216 9.73402 18.4418 10.0602ZM83.8468 10.9872C83.9155 11.0559 83.9327 11.3134 83.864 11.5709C83.7782 11.9143 83.658 12.0173 83.2974 12.0173C82.5762 12.0173 82.4388 11.8284 82.7135 11.1932C82.9024 10.7126 83.0055 10.6439 83.3317 10.7469C83.5378 10.7984 83.7782 10.9186 83.8468 10.9872ZM30.4788 11.5709C32.3333 12.0688 32.8999 12.6696 34.0161 15.3306C34.3767 16.2061 34.514 16.7211 34.3938 16.8413C34.2049 17.0302 30.4788 17.7168 29.5344 17.7512C29.0364 17.7512 28.6586 17.5623 27.491 16.6696L26.0658 15.5709L26.5809 15.1761C26.8557 14.9529 27.1304 14.5924 27.1991 14.352C27.2678 14.0602 27.5253 13.8714 28.195 13.631C29.2596 13.2533 29.3627 12.9787 28.8647 12.0173L28.5041 11.3306H29.0708C29.3627 11.3306 30.0152 11.4336 30.4788 11.5709ZM28.2637 12.292C28.5213 12.6696 28.5213 12.7555 28.3152 12.8928C27.8688 13.1675 27.6455 13.0645 27.6455 12.5666C27.6455 12.1375 27.7657 11.8456 27.9203 11.8456C27.9546 11.8456 28.1092 12.0516 28.2637 12.292ZM17.1711 16.9787C17.1711 17.1847 16.8105 17.3048 16.5358 17.2018C16.158 17.0645 16.2954 16.8241 16.7418 16.8241C16.9822 16.8241 17.1711 16.8928 17.1711 16.9787ZM27.4738 31.6053C27.4738 31.6911 27.2506 32.498 26.9759 33.3563C26.684 34.2319 26.3405 35.3649 26.2032 35.8799C26.0486 36.4121 25.688 37.0988 25.3618 37.4593C24.6406 38.2662 22.9406 41.0988 22.5972 42.0774C22.4598 42.4894 22.3396 42.6782 22.3225 42.4894C22.3225 41.9744 23.4043 39.7769 24.4689 38.1975C25.2244 37.0473 25.9284 35.4164 25.9284 34.7984C25.9284 34.5409 19.9529 34.8327 19.2488 35.1246C18.4418 35.4679 18.3731 35.2791 19.06 34.5924L19.6609 34.0087L22.9063 33.8714L26.1517 33.734L26.4607 32.807C26.787 31.8628 27.0617 31.4164 27.3193 31.4164C27.4051 31.4164 27.4738 31.5023 27.4738 31.6053ZM19.9185 32.3435C19.9185 32.3778 19.7983 32.4636 19.6438 32.5151C19.5064 32.5666 19.4377 32.5495 19.4892 32.4465C19.5923 32.2748 19.9185 32.2061 19.9185 32.3435ZM23.3527 36.4636C23.3527 36.498 22.975 36.807 22.5114 37.1503L21.67 37.7684H19.163C17.7893 37.7684 16.656 37.6997 16.656 37.6138C16.656 37.3907 17.3257 37.2533 18.562 37.2533C19.7468 37.2533 22.3912 36.8241 22.8376 36.5495C23.1124 36.395 23.3527 36.3435 23.3527 36.4636ZM19.9872 38.2662C20.1589 38.5237 19.6094 38.6267 18.167 38.6267C16.4843 38.6267 16.553 38.4035 18.2529 38.2662C18.9398 38.2147 19.5751 38.1632 19.6953 38.146C19.7983 38.1289 19.9357 38.1804 19.9872 38.2662ZM22.6487 44.4636C22.6659 44.6868 22.6487 44.6868 22.4942 44.4636C22.4083 44.3263 22.3396 44.0516 22.3396 43.8628V43.5194L22.4942 43.8628C22.58 44.0516 22.6487 44.3263 22.6487 44.4636ZM11.0753 49.3563L11.1097 50.3864L10.8865 49.6997C10.6117 48.8241 10.5946 48.189 10.835 48.2748C10.9552 48.3091 11.0582 48.7726 11.0753 49.3563ZM12.4662 49.3392C12.7753 49.5795 12.7753 49.6138 12.5006 49.9057C12.2086 50.1804 12.1743 50.1804 11.9167 49.9229C11.642 49.6482 11.6935 49.0988 11.9854 49.0988C12.0541 49.0988 12.2773 49.2018 12.4662 49.3392Z" fill="white"/>
<path d="M66.5555 3.9829C66.0919 4.37775 66.0919 4.42925 65.9889 6.90136C65.9202 8.68677 65.9374 9.49363 66.0747 9.66531C66.3495 9.99149 66.1606 10.1288 65.4566 10.1288C64.701 10.1288 60.2194 10.9872 56.7508 11.7769C54.6731 12.2576 53.763 12.5666 52.0459 13.3906C48.9379 14.9014 45.5037 17.0644 45.5037 17.528C45.5037 17.8541 46.6713 17.4078 47.3925 16.8241C48.543 15.8799 50.552 14.6953 52.1661 14.0087C53.7802 13.322 53.9519 13.2876 53.8145 13.6481C53.6771 13.9743 53.8145 13.9743 56.0468 13.5623C57.077 13.3735 59.4982 12.6868 61.4557 12.0344C65.697 10.6095 65.9717 10.5408 65.8343 10.9014C65.7657 11.0387 65.8 11.1589 65.903 11.1589C66.1606 11.1589 70.917 9.68247 71.6554 9.37346C72.4453 9.04728 72.3422 8.75544 71.4493 8.75544C70.814 8.75544 70.7796 8.7211 70.6595 8.12024C70.5908 7.77689 70.3504 7.1417 70.1271 6.71252C69.9039 6.28333 69.715 5.80265 69.715 5.66531C69.715 5.08161 69.3373 4.12024 69.0625 3.96574C68.908 3.8799 68.3757 3.75973 67.8949 3.69106C67.1222 3.58805 66.9505 3.62239 66.5555 3.9829Z" fill="white"/>
<path d="M57.8669 11.159C57.6437 11.3135 57.6437 11.3307 57.8669 11.3135C58.0043 11.3135 58.279 11.2448 58.4679 11.159L58.8113 11.0045H58.4679C58.279 11.0045 58.0043 11.0731 57.8669 11.159Z" fill="white"/>
<path d="M65.2505 32.2232C65.5768 32.3777 67.3454 33.2361 69.1827 34.1288C71.0029 35.0043 73.1149 36.0687 73.8704 36.4979C74.626 36.9271 75.2785 37.2361 75.33 37.2017C75.4674 37.0472 69.8696 34.0944 67.1565 32.8927C65.4909 32.1374 64.0657 31.6395 65.2505 32.2232Z" fill="white"/>
<path d="M15.9521 33.7683C13.7541 35.8455 11.0067 39.2104 10.5431 40.3949C10.3199 41.0129 10.9724 40.6696 11.3845 39.9485C12.0885 38.764 14.4925 35.7597 15.9692 34.1975C16.7419 33.4078 17.3257 32.7211 17.2742 32.6696C17.2399 32.6352 16.6389 33.1159 15.9521 33.7683Z" fill="white"/>
<path d="M14.5955 33.94C10.4915 36.4121 7.31487 38.8156 6.78257 39.8456C6.47349 40.4465 6.45632 40.5151 6.7654 40.5151C6.88559 40.5151 7.19468 40.2233 7.43507 39.8628C8.49969 38.2319 10.44 36.6868 14.2177 34.4207C15.2651 33.7855 16.1409 33.2362 16.1409 33.2018C16.1409 33.0473 15.8146 33.2018 14.5955 33.94Z" fill="white"/>
<path d="M66.1091 35.794C67.2939 36.4121 68.2898 36.9099 68.3242 36.9099C68.5302 36.9099 67.5 35.9829 67.0535 35.7597C66.7788 35.6224 66.1949 35.3305 65.7657 35.0902C65.3536 34.867 64.7697 34.6782 64.4778 34.6782C64.0657 34.6953 64.392 34.9013 66.1091 35.794Z" fill="white"/>
<path d="M48.5258 36.4293C48.8692 37.1332 49.745 38.2319 50.9813 39.5194C51.857 40.4636 51.96 40.5151 52.7156 40.5151C53.162 40.5151 53.557 40.4636 53.6256 40.4121C53.6772 40.3606 53.5054 40.1203 53.2479 39.8971C52.4752 39.2619 50.8954 37.2362 50.6035 36.5151L50.3288 35.8799H49.2813H48.2339L48.5258 36.4293Z" fill="white"/>
<path d="M34.514 36.206C33.6898 36.2747 33.209 36.3605 33.415 36.412C33.913 36.5665 36.2311 36.3777 36.2311 36.206C36.2311 36.1202 36.1796 36.0687 36.1109 36.0858C36.025 36.103 35.321 36.1545 34.514 36.206Z" fill="white"/>
<path d="M51.6853 36.3778C51.6853 36.4808 51.754 36.5838 51.8398 36.6354C51.9257 36.6869 52.2176 37.1504 52.5095 37.6482C53.2307 38.9186 54.5529 40.3435 55.0165 40.3435C55.3428 40.3435 55.2397 40.189 54.4155 39.3306C53.866 38.7813 53.2651 38.0087 53.059 37.6139C52.5439 36.5838 51.6853 35.8113 51.6853 36.3778Z" fill="white"/>
<path d="M33.9473 37.5451C33.8787 37.5966 33.8271 38.4206 33.8271 39.3476V41.03H34.7544C35.8533 41.03 35.8877 40.9785 35.8877 38.8326V37.4249H34.9776C34.4625 37.4249 33.9989 37.4764 33.9473 37.5451Z" fill="white"/>
<path d="M9.87353 38.6954C9.44425 38.8842 8.58569 40.0345 8.58569 40.4121C8.58569 40.4636 8.8776 40.5151 9.2382 40.5151C9.77051 40.5151 9.97656 40.4121 10.2685 40.0001C10.7664 39.3478 10.7493 39.3134 10.0968 39.3134C9.66748 39.3134 9.59879 39.2619 9.78768 39.1417C9.92505 39.0559 10.2513 38.9701 10.4917 38.9701C10.7493 38.9701 11.0412 38.8499 11.1614 38.7126C11.3503 38.4894 11.2987 38.4551 10.8866 38.4551C10.6119 38.4722 10.1654 38.5752 9.87353 38.6954Z" fill="white"/>
<path d="M4.73921 42.0431C3.81197 43.4852 2.88472 46.3865 3.22815 46.7298C3.34835 46.85 3.5544 46.5581 3.88065 45.8543C4.18973 45.1332 4.63618 44.5152 5.27152 43.9487L6.18159 43.1075L5.5806 43.2105C4.99678 43.2963 4.97961 43.2792 4.97961 42.7813C4.97961 42.4895 5.04829 42.0603 5.15132 41.8199C5.39172 41.1848 5.22 41.2706 4.73921 42.0431Z" fill="white"/>
<path d="M81.8207 41.5623C82.6792 41.8198 88.6033 42.9529 88.7922 42.8842C88.8952 42.8499 87.367 42.4894 85.3923 42.0945C82.0267 41.4078 80.653 41.2018 81.8207 41.5623Z" fill="white"/>
<path d="M33.4837 43.7597C35.0463 44.2061 37.3301 44.9958 38.5492 45.528C39.7856 46.043 41.434 46.6782 42.2239 46.9529C43.3228 47.3134 43.5976 47.4679 43.3743 47.5881C43.2198 47.6739 42.9279 48.0688 42.739 48.4636C42.241 49.425 41.0047 53.219 41.3138 52.7898C41.4512 52.6009 41.7259 51.9486 41.8976 51.3306C42.4471 49.5108 43.0996 48.1031 43.5289 47.8284C43.8723 47.6052 44.044 47.6052 45.1773 47.8971C45.8813 48.0859 46.9116 48.2233 47.4782 48.2061L48.5085 48.1889L47.3065 48.0516C45.9843 47.9142 44.8167 47.5881 42.0693 46.6095C41.0734 46.2662 40.1461 45.94 40.0088 45.8885C39.8714 45.8542 39.631 45.6138 39.4765 45.3563C39.2532 44.9615 38.8411 44.7898 36.8149 44.1546C34.0504 43.3134 32.2989 42.9185 31.3373 42.9357C30.8222 42.9357 31.3545 43.1417 33.4837 43.7597Z" fill="white"/>
<path d="M90.664 43.365C91.5569 43.5882 92.3811 43.7427 92.4669 43.7084C92.673 43.6569 89.6337 42.9015 89.2731 42.9358C89.1357 42.953 89.7711 43.1418 90.664 43.365Z" fill="white"/>
<path d="M92.8618 43.8971C92.982 43.9486 93.1365 43.9315 93.188 43.88C93.2567 43.8285 93.1537 43.777 92.9648 43.7941C92.7759 43.7941 92.7244 43.8456 92.8618 43.8971Z" fill="white"/>
<path d="M4.48173 45.442C3.79488 46.2832 3.55448 47.588 3.67468 49.5965C3.81205 51.7768 3.81205 51.897 3.79488 56.1373C3.76054 59.4506 3.98376 61.442 4.63627 63.8798C5.09989 65.5622 6.73115 66.2317 10.526 66.2832C13.1017 66.3176 13.4107 66.1974 13.8915 64.9957C14.2865 64.0171 14.7673 62.2317 14.7673 61.7682C14.7673 61.3562 15.0592 61.3734 15.1966 61.8026C15.2652 62.0086 15.5571 62.1974 15.9349 62.3004C16.2783 62.4034 18.1157 62.8669 20.0045 63.3305C21.8933 63.8111 23.5933 64.2403 23.7993 64.309C24.1427 64.3948 24.1599 64.3262 24.2629 62.9699C24.3145 62.1802 24.4175 61.3734 24.469 61.1845C24.6064 60.7725 24.9498 60.8583 18.1157 59.382C12.3118 58.1287 9.8048 57.5107 9.54723 57.236C9.20381 56.9099 8.72301 55.2103 7.74425 50.9699C6.85135 47.0901 6.42207 45.8712 5.70088 45.3219C5.13423 44.8755 4.91101 44.8927 4.48173 45.442ZM6.25036 48.4978C6.97155 49.2704 7.74425 52.7382 7.70991 54.9699L7.67557 56.0515L7.48669 54.5923C7.36649 53.7854 7.24629 53.0129 7.17761 52.8755C7.12609 52.7382 6.98872 52.1545 6.86852 51.588C6.7655 51.0214 6.55944 50.3862 6.42207 50.1802C6.2847 49.9742 6.18168 49.6824 6.18168 49.5279C6.18168 49.3905 6.06148 49.2704 5.92411 49.2704C5.78674 49.2704 5.66654 49.1845 5.66654 49.0644C5.66654 48.7553 4.68778 49.7682 4.44739 50.3176C4.08679 51.2274 4.10396 50.7124 4.48173 49.6996C4.84232 48.721 5.32312 48.0686 5.66654 48.0686C5.76957 48.0686 6.02714 48.2575 6.25036 48.4978ZM6.23319 50.9356C6.37056 51.1073 6.54227 51.6223 6.61096 52.103C6.67964 52.5665 6.85135 53.0987 7.00589 53.2532C7.19478 53.4935 7.28063 54.2146 7.33215 56.6867C7.40083 59.4335 7.36649 60.0515 7.05741 61.6137C6.61096 63.7253 6.23319 64.618 5.73523 64.6867C5.30595 64.7553 5.04838 64.4635 4.89384 63.7768L4.79081 63.2618L5.06555 63.7253C5.37463 64.2747 5.46049 64.2918 5.95845 63.9485C6.35339 63.6738 6.61096 62.9871 6.30187 63.0214C5.42614 63.1244 5.16858 62.7468 4.70495 60.6867C4.32719 58.9871 4.27567 54.7296 4.60193 52.9442C4.84232 51.6566 5.34029 50.6438 5.71805 50.6438C5.85542 50.6438 6.07865 50.7811 6.23319 50.9356Z" fill="white"/>
<path d="M5.323 52.8242C5.323 52.9272 5.46037 53.1161 5.63208 53.2363C5.90682 53.4594 5.90682 53.4594 5.66642 53.1332C5.52905 52.9444 5.39168 52.7556 5.37451 52.7212C5.34017 52.6869 5.323 52.7212 5.323 52.8242Z" fill="white"/>
<path d="M5.4089 53.5624C5.58061 53.7513 5.75232 53.9058 5.80383 53.9058C5.85535 53.9058 5.75232 53.7513 5.58061 53.5624C5.4089 53.3736 5.23718 53.2191 5.18567 53.2191C5.13416 53.2191 5.23718 53.3736 5.4089 53.5624Z" fill="white"/>
<path d="M5.4947 54.1631C5.71793 54.4034 5.94115 54.5923 5.97549 54.5923C6.02701 54.5923 5.88964 54.4034 5.66641 54.1631C5.44319 53.9228 5.21996 53.7339 5.18562 53.7339C5.1341 53.7339 5.27147 53.9228 5.4947 54.1631Z" fill="white"/>
<path d="M5.40896 54.6782C5.70087 54.9186 5.99278 55.1074 6.06146 55.1074C6.14732 55.1074 5.97561 54.9186 5.70087 54.6782C5.40896 54.4379 5.11705 54.2491 5.04836 54.2491C4.96251 54.2662 5.13422 54.4551 5.40896 54.6782Z" fill="white"/>
<path d="M4.97974 54.9358C4.97974 55.1074 5.82112 55.5194 5.94132 55.3993C5.97567 55.3649 5.76961 55.2104 5.49487 55.0388C5.20296 54.8671 4.97974 54.8156 4.97974 54.9358Z" fill="white"/>
<path d="M6.79981 55.7255C6.64527 56.292 6.85132 57.7169 7.05737 57.5796C7.26343 57.4594 7.26343 55.2792 7.05737 55.2792C6.97152 55.2792 6.85132 55.4852 6.79981 55.7255Z" fill="white"/>
<path d="M4.97974 55.6223C4.97974 55.7082 4.99691 55.794 5.03125 55.794C5.04842 55.794 5.32316 55.8627 5.63224 55.9485C6.31909 56.1545 6.33626 56.0515 5.66658 55.7082C5.08276 55.3991 4.97974 55.3991 4.97974 55.6223Z" fill="white"/>
<path d="M4.97974 56.3091C4.97974 56.3949 5.30599 56.4808 5.7181 56.4636C6.33626 56.4464 6.3706 56.4293 6.01001 56.3091C5.39184 56.1031 4.97974 56.1031 4.97974 56.3091Z" fill="white"/>
<path d="M4.97974 56.9959C4.97974 57.2019 5.39184 57.2019 6.01001 56.9959C6.3706 56.8757 6.33626 56.8585 5.7181 56.8414C5.30599 56.8242 4.97974 56.8929 4.97974 56.9959Z" fill="white"/>
<path d="M5.70097 57.3391C5.09998 57.4764 4.85958 57.6309 5.01412 57.7683C5.06563 57.8198 5.4434 57.7168 5.85551 57.5279C6.66255 57.1674 6.61104 57.1159 5.70097 57.3391Z" fill="white"/>
<path d="M5.37467 58.0257C5.15145 58.1116 4.97974 58.2317 4.97974 58.2832C4.97974 58.4549 5.44336 58.3691 5.76961 58.1116C6.13021 57.8369 5.95849 57.8026 5.37467 58.0257Z" fill="white"/>
<path d="M5.54639 58.4895C5.2373 58.644 4.97974 58.8328 4.97974 58.9187C4.97974 59.159 5.2373 59.0732 5.8383 58.6268C6.4908 58.1461 6.3706 58.0775 5.54639 58.4895Z" fill="white"/>
<path d="M5.66649 59.0387C5.34024 59.3134 5.11701 59.5881 5.16853 59.6396C5.22004 59.6911 5.52912 59.4679 5.8382 59.1417C6.54222 58.4035 6.45636 58.3692 5.66649 59.0387Z" fill="white"/>
<path d="M5.70091 59.6053C5.37466 59.88 5.15144 60.1375 5.20295 60.189C5.23729 60.2233 5.37466 60.1546 5.49486 60.0001C5.61506 59.8628 5.78677 59.7426 5.8898 59.7426C5.99282 59.7426 5.8898 59.9315 5.66657 60.1718C5.44335 60.4121 5.30598 60.6353 5.35749 60.704C5.409 60.7555 5.63223 60.5495 5.83828 60.2748C6.04434 59.983 6.14736 59.7426 6.07868 59.7426C6.02717 59.7426 6.06151 59.6224 6.18171 59.4851C6.57664 59.0044 6.28473 59.0731 5.70091 59.6053Z" fill="white"/>
<path d="M5.66656 60.9787C5.4605 61.3564 5.4605 61.3564 5.76958 61.0817C5.9413 60.91 6.02715 60.7384 5.97564 60.6697C5.90695 60.6182 5.76958 60.7555 5.66656 60.9787Z" fill="white"/>
<path d="M101.653 45.8541L99.6787 45.9399L101.671 45.9742C102.77 45.9914 103.937 46.0601 104.246 46.1116C104.572 46.1803 104.779 46.1803 104.727 46.1116C104.469 45.8369 103.508 45.7511 101.653 45.8541Z" fill="white"/>
<path d="M51.0844 46.9014C50.6208 46.9873 50.1571 47.1246 50.0884 47.1933C49.8309 47.4508 52.355 47.5881 55.2741 47.4851C56.8367 47.4165 60.7174 47.3306 63.8769 47.2791C67.0364 47.2105 71.106 47.1246 72.8918 47.0559C75.9139 46.9529 76.0513 46.9358 74.6948 46.8156C73.1665 46.6954 70.7626 46.7126 59.4124 47.0044C53.9348 47.1418 52.4066 47.1418 52.2005 46.9701C52.0116 46.8156 51.7025 46.7984 51.0844 46.9014Z" fill="white"/>
<path d="M77.7856 47.5709C66.6415 47.7769 51.7712 48.2232 49.1955 48.4292C47.5471 48.5494 46.9118 48.6696 46.7572 48.8584C46.3623 49.3906 46.2593 52.7897 46.6027 53.5966C46.7229 53.8541 46.6542 53.9056 46.2936 53.9056C46.0532 53.9056 45.8472 53.9915 45.8472 54.0945C45.8472 54.3176 57.9013 54.2318 68.6848 53.9228C77.4937 53.6824 89.7882 53.4249 98.6486 53.2876C107.56 53.1674 110.102 53.0301 110.497 52.7039C110.703 52.5322 110.754 52.2919 110.703 51.897C110.565 51.1417 109.123 48.206 108.677 47.794C108.333 47.485 107.818 47.4678 96.8628 47.4507C90.5781 47.4335 81.9925 47.485 77.7856 47.5709ZM100.932 50.0601L100.984 52.3091L100.434 52.4292C99.5243 52.6009 94.4416 52.5494 94.4416 52.3606C94.4416 52.2575 95.5234 52.1889 97.3264 52.1889C98.9061 52.1889 100.297 52.1202 100.417 52.0515C100.572 51.9485 100.623 51.4163 100.589 50.0258L100.537 48.1545L97.8244 48.103C95.7123 48.0687 94.9911 48.1202 94.5962 48.3091C94.2871 48.4636 94.0639 48.4979 93.9952 48.3777C93.6861 47.8799 94.4588 47.7769 98.1334 47.794L100.881 47.8112L100.932 50.0601ZM108.367 48.1889C108.453 48.4292 108.505 49.4593 108.488 50.455L108.436 52.2747L105.174 52.3262C102.255 52.3606 101.894 52.3434 101.705 52.0687C101.396 51.6567 101.396 47.9657 101.705 47.8455C101.808 47.794 103.319 47.7425 105.053 47.7425L108.179 47.7254L108.367 48.1889ZM54.3984 51.0043L54.4499 53.3391L53.6257 53.4421C53.1621 53.5108 51.6167 53.5623 50.1571 53.5794C48.0966 53.5966 47.4956 53.5451 47.3754 53.3734C47.1178 52.9786 47.1865 49.1674 47.4441 48.9614C47.6845 48.7554 49.745 48.6352 52.6298 48.6524L54.3469 48.6696L54.3984 51.0043ZM62.7608 49.1331C62.8123 49.4421 62.8466 50.4721 62.8123 51.4163L62.7608 53.1331L61.8164 53.2704C61.3012 53.3391 59.7215 53.3734 58.2963 53.3563L55.7206 53.3048L55.5832 51.4163C55.4802 50.146 55.4974 49.3734 55.6176 49.0472L55.8065 48.5837H59.2235H62.6578L62.7608 49.1331ZM98.4769 49.0988C98.3395 49.3219 95.6436 49.2876 95.6436 49.0816C95.6436 48.9957 96.3133 48.9271 97.1203 48.9271C98.0819 48.9271 98.5455 48.9957 98.4769 49.0988ZM94.8194 49.5794C94.7335 50.1631 95.18 51.2962 95.5578 51.4335C95.987 51.6052 95.8497 51.8455 95.3002 51.8455C94.9053 51.8455 94.7335 51.7425 94.6133 51.4163C94.5275 51.176 94.4588 50.9185 94.4588 50.8498C94.476 50.7812 94.4588 50.6953 94.4416 50.6438C94.4245 50.5923 94.3901 50.2318 94.3729 49.8198C94.3386 49.2533 94.4073 49.0988 94.6133 49.0988C94.8194 49.0988 94.8709 49.2189 94.8194 49.5794ZM78.0947 49.8198C78.2149 49.94 78.3007 50.249 78.3007 50.5065C78.3007 50.9872 78.2835 50.9872 77.2533 50.9872C76.4977 50.9872 76.223 50.9357 76.2917 50.764C76.326 50.661 76.6008 50.558 76.8927 50.5408C77.6482 50.5408 77.8027 50.3005 77.0644 50.3005C76.4806 50.3005 75.9483 49.9571 76.1887 49.7339C76.3775 49.5279 77.8714 49.5966 78.0947 49.8198ZM80.8764 49.94C81.1168 50.4035 81.0996 50.9872 80.8249 50.9872C80.7047 50.9872 80.5158 50.7812 80.4128 50.5065L80.2239 50.043L80.2067 50.5065C80.1895 51.073 79.7603 51.1588 79.5886 50.6438C79.537 50.455 79.4168 50.3005 79.331 50.3005C79.2623 50.3005 79.228 50.455 79.2795 50.6438C79.3482 50.8842 79.2795 50.9872 79.0906 50.9872C78.7987 50.9872 78.5411 50.2833 78.7128 49.8713C78.7815 49.6824 79.0734 49.6138 79.7431 49.6138C80.4986 49.6138 80.7218 49.6824 80.8764 49.94ZM83.2804 49.8713C83.2804 50.0601 83.0915 50.1288 82.5935 50.1288C81.6834 50.1288 81.7178 50.4378 82.645 50.5065C83.6238 50.5751 83.4864 50.8842 82.4218 50.9528C81.6491 51.0043 81.5461 50.97 81.3744 50.5751C81.0309 49.8541 81.2713 49.6138 82.3359 49.6138C83.0571 49.6138 83.2804 49.6653 83.2804 49.8713ZM98.0304 50.0601C99.0607 50.1803 99.095 50.1975 99.0435 50.6266C98.992 51.0215 98.889 51.0902 98.0991 51.2275C96.7254 51.4507 95.3002 50.9528 95.3002 50.2318C95.3002 49.9915 96.5365 49.9056 98.0304 50.0601Z" fill="white"/>
<path d="M101.911 48.2405C101.842 48.3435 101.842 48.4809 101.894 48.5324C101.945 48.601 101.997 48.5495 101.997 48.4465C101.997 48.3263 102.151 48.2405 102.34 48.2405C102.752 48.2405 102.804 48.7899 102.426 49.0989C101.98 49.4766 102.117 50.2491 102.77 50.9701C103.336 51.5881 103.353 51.6568 103.079 51.8285C102.855 51.9658 103.508 52.0002 105.483 52.0173H108.196L108.144 50.0774L108.093 48.1547L105.053 48.1032C103.01 48.0688 101.98 48.1203 101.911 48.2405ZM106.771 49.0302C107.475 49.2191 107.183 49.5281 106.341 49.4937C105.878 49.4766 105.483 49.4594 105.431 49.4422C105.328 49.4251 106.152 48.9444 106.29 48.9272C106.341 48.9272 106.547 48.9787 106.771 49.0302ZM106.685 50.0603C107.045 50.1461 107.148 50.2491 107.148 50.6096C107.148 51.4508 106.977 51.5366 105.362 51.5195C103.68 51.5023 103.13 51.3135 103.285 50.7984C103.353 50.6096 103.319 50.4723 103.216 50.4723C103.113 50.4723 103.027 50.4036 103.027 50.3178C103.027 49.9401 105.191 49.7856 106.685 50.0603Z" fill="white"/>
<path d="M48.0793 49.0816C47.7016 49.1846 47.6501 49.3048 47.5986 50.1631C47.5642 50.867 47.6157 51.1932 47.8218 51.3992C47.9763 51.5537 48.1652 51.6395 48.2339 51.6052C48.2854 51.5709 48.5086 51.8284 48.7147 52.206L49.0753 52.8756L48.646 52.9786C48.4056 53.0472 48.0622 53.0129 47.8733 52.8927C47.6329 52.7382 47.5642 52.7554 47.5642 52.9442C47.5642 53.0816 47.7187 53.2533 47.9248 53.3048C48.5086 53.4936 53.8832 53.2018 54.0377 52.9786C54.1236 52.8756 54.1408 51.9314 54.0893 50.9013L54.0034 49.0129L51.256 48.9786C49.745 48.9614 48.3197 49.0129 48.0793 49.0816ZM53.0246 51.2618C53.4711 51.5537 53.5226 52.1202 53.1105 52.3434C52.7671 52.5151 49.4874 52.3434 49.144 52.1202C48.9207 51.9829 48.8692 51.4678 49.0581 51.279C49.1096 51.2103 49.247 51.2447 49.3672 51.3305C49.4874 51.4335 49.7621 51.382 50.1571 51.1588C50.6207 50.9013 50.9469 50.8498 51.6853 50.9185C52.2004 50.9872 52.8014 51.1245 53.0246 51.2618Z" fill="white"/>
<path d="M58.1761 48.8757L55.9954 48.9443L55.8752 49.528C55.8237 49.8714 55.8408 50.6611 55.9267 51.2963L56.0984 52.4465L56.1327 51.4508C56.1499 50.5409 56.3216 50.2319 56.5792 50.6439C56.6307 50.7298 56.5964 50.8156 56.4933 50.8156C56.3903 50.8156 56.5105 51.0903 56.7681 51.4336L57.2489 52.0516L56.8196 52.3778C56.5964 52.5495 56.356 52.704 56.2873 52.704C55.9439 52.704 56.2014 53.013 56.6307 53.0989C57.4721 53.2534 62.2113 52.91 62.3659 52.6697C62.5376 52.4293 62.4346 49.2362 62.2457 48.9443C62.1942 48.8413 61.7305 48.7727 61.2498 48.7898C60.7518 48.807 59.3781 48.8585 58.1761 48.8757ZM59.0175 50.8499C59.8074 50.8156 60.5972 50.8843 60.7861 50.9873C61.2669 51.2448 61.2326 51.8113 60.7174 51.9486C60.0993 52.1031 57.6953 51.8971 57.4206 51.6568C57.1115 51.3993 57.0772 50.5581 57.4034 50.7641C57.5064 50.8328 58.2448 50.8671 59.0175 50.8499Z" fill="white"/>
<path d="M2.8676 48.4463C2.91911 48.8584 3.02214 49.4592 3.09083 49.7854C3.19385 50.2661 3.2282 50.1287 3.24537 49.0472C3.26254 48.0172 3.21102 47.7253 3.02214 47.7253C2.83326 47.7253 2.79892 47.897 2.8676 48.4463Z" fill="white"/>
<path d="M26.9759 49.2361C25.6194 49.9571 24.7951 52.5666 24.9497 55.6224C25.0012 56.6181 25.1042 57.5966 25.1729 57.8198C25.2759 58.1803 25.3618 58.1116 25.9628 57.0816C27.5425 54.3348 28.8819 53.3734 31.1656 53.3563C31.6808 53.3563 32.1101 53.2704 32.1101 53.1846C32.1101 52.8928 31.4576 51.7597 30.6849 50.7125C30.1697 50.0086 29.6718 49.5451 29.1566 49.2876C28.2294 48.8413 27.7314 48.8413 26.9759 49.2361Z" fill="white"/>
<path d="M33.0203 53.116C33.089 53.2877 33.1405 53.4766 33.1405 53.5624C33.1405 53.6311 33.3465 53.7856 33.6213 53.8886C34.1536 54.0946 36.2656 54.4551 36.3687 54.3349C36.403 54.3006 36.403 54.0774 36.3343 53.8542C36.2313 53.3907 35.6131 53.1847 33.8445 52.9444C33.0031 52.8414 32.9172 52.8585 33.0203 53.116Z" fill="white"/>
<path d="M107.835 53.5623C106.273 53.631 100.984 53.734 96.0728 53.8027C85.5469 53.9228 72.2907 54.1804 64.1344 54.4207C56.2528 54.661 45.7269 54.661 44.1643 54.4379C43.0654 54.2662 42.1553 54.0945 40.919 53.8198C40.6442 53.7512 40.524 53.8027 40.524 53.9915C40.524 54.3005 40.5412 54.3005 39.2362 53.9915C37.7766 53.631 37.7251 53.6482 37.8625 54.1975C37.9999 54.7812 38.0857 54.8327 39.2534 55.0902C40.3352 55.3477 40.3867 55.3992 40.7644 57.3735C40.919 58.0945 41.1765 58.9872 41.3654 59.3477C42.0866 60.704 42.2583 61.1675 42.121 61.3048C41.9321 61.4765 36.9524 62.4894 36.2484 62.4894C35.6989 62.4894 35.6989 62.5065 35.802 63.0559C35.8706 63.3477 36.0767 63.8971 36.2484 64.2404C36.5403 64.8241 36.5575 65.0645 36.4029 66.7297C36.1454 69.631 35.802 70.6267 34.5313 72.2404C33.7586 73.2018 33.1576 73.4765 31.6637 73.4765C30.084 73.4765 28.6416 72.2061 27.4052 69.734C26.478 67.8971 26.2204 66.6954 26.2033 64.2061C26.2033 62.146 26.2204 61.9915 26.7699 60.6525C27.4396 59.0044 28.2123 58.0258 29.2426 57.528C30.7536 56.7898 32.3162 57.2018 33.7242 58.7125C34.1535 59.1761 34.5141 59.5022 34.5141 59.4336C34.5141 58.8842 33.6899 56.9786 33.2606 56.5151C32.5223 55.7426 31.0627 55.2276 29.9466 55.3306C27.7487 55.5537 26.4265 56.9615 25.1558 60.4293C24.5205 62.1804 24.3659 64.9271 24.8124 66.8842C25.8255 71.4679 27.9547 75.1589 30.2213 76.2919C31.7667 77.0645 32.4879 77.1675 36.5747 77.1675H40.4382L41.5886 76.601C42.3442 76.2404 42.9452 75.7769 43.3229 75.3134C44.2158 74.1975 45.6067 71.4336 45.8471 70.3005C45.9673 69.734 46.1218 69.2018 46.1905 69.1331C46.2592 69.0473 47.3925 69.0816 48.6803 69.1846C51.1015 69.4078 57.5579 69.2362 63.5334 68.8241C67.6717 68.5323 78.4895 68.3434 78.936 68.5495C79.2107 68.6696 79.4511 68.6696 79.7259 68.5323C79.9319 68.4293 80.6188 68.3091 81.2541 68.2576L82.4046 68.1374L82.954 69.219C83.7096 70.7297 84.7914 71.9486 86.3024 72.9443C87.865 73.9915 88.7579 74.2834 91.2477 74.5237C94.3901 74.8155 98.0475 74.4379 99.5071 73.6825C101.413 72.6696 103.353 69.9743 103.92 67.5194L104.126 66.6439L105.071 66.5237C106.908 66.3005 107.165 65.9915 106.29 65.1503C105.569 64.4636 105.397 63.7083 105.706 62.6782C105.843 62.2147 106.084 61.6825 106.255 61.4765C106.41 61.2877 107.543 60.6868 108.762 60.1374C109.981 59.5881 111.012 59.0387 111.063 58.9014C111.115 58.7469 111.046 58.7125 110.823 58.7812C110.634 58.8327 107.646 58.9529 104.143 59.0559C100.658 59.1417 95.1628 59.3134 91.9517 59.3992C86.2681 59.5709 74.4543 59.8113 62.9324 60.0001C59.8244 60.0516 55.2913 60.1374 52.8873 60.2061C48.6117 60.3091 46.1905 60.1889 46.7057 59.9143C46.843 59.8456 49.2127 59.7254 51.9429 59.6739C54.6903 59.6052 60.2022 59.4851 64.2203 59.3992C68.2383 59.2962 75.6219 59.1417 80.6188 59.0559C94.2699 58.7984 111.029 58.2834 111.51 58.0945C111.836 57.9743 112.008 57.4593 112.403 55.5022C112.712 53.9228 112.712 53.9057 112.385 53.6482C112.197 53.5108 111.733 53.4078 111.355 53.425C110.977 53.4422 109.398 53.4937 107.835 53.5623ZM103.508 56.0859L103.559 57.1331L101.963 57.2533C101.087 57.322 99.9364 57.3392 99.4212 57.3048L98.4768 57.2533V56.2233V55.1932L99.6788 55.0902C100.348 55.0387 101.465 55.0044 102.169 55.0044L103.456 55.0216L103.508 56.0859ZM60.3224 57.0301C60.3739 57.6138 60.3739 58.1632 60.3396 58.2319C60.2881 58.3005 58.9144 58.3692 57.2659 58.3692C54.7246 58.3692 54.2782 58.3349 54.1923 58.0945C54.0549 57.734 54.0549 56.2233 54.2095 56.0859C54.261 56.0173 55.6519 55.9658 57.2659 55.9658H60.2194L60.3224 57.0301ZM94.9567 68.3434C94.9567 68.4293 94.888 68.498 94.785 68.498C94.6991 68.498 94.6133 68.3778 94.6133 68.2233C94.6133 68.0859 94.6991 68.0173 94.785 68.0688C94.888 68.1203 94.9567 68.2404 94.9567 68.3434ZM94.3214 68.8585C94.184 69.3563 94.0981 69.2533 94.0981 68.6181C94.0981 68.2404 94.1497 68.1374 94.2527 68.3091C94.3385 68.4293 94.3557 68.6868 94.3214 68.8585ZM93.583 69.116C93.2739 69.4765 93.1709 69.2877 93.4285 68.807C93.5658 68.5666 93.6689 68.498 93.7204 68.6353C93.7547 68.7555 93.686 68.9615 93.583 69.116ZM36.2312 70.5752C35.9565 71.5537 35.3383 72.7555 34.806 73.3392C33.9303 74.2834 32.4364 74.6954 31.1486 74.3349C29.9981 74.0087 30.1011 73.8542 31.4061 73.9572C32.4021 74.0258 32.7283 73.9743 33.5182 73.6138C34.2737 73.2533 34.5828 72.9786 35.1666 72.1031C35.5616 71.5194 35.9737 70.7297 36.0767 70.3692C36.3514 69.4593 36.4716 69.6482 36.2312 70.5752Z" fill="white"/>
<path d="M29.5859 54.6095C29.191 54.6782 28.693 54.8327 28.4698 54.9529C28.0062 55.1761 26.4436 56.6696 26.4436 56.8585C26.4436 56.9443 26.684 56.7383 26.9759 56.395C28.2294 54.9701 30.2213 54.4035 31.8354 55.0216C32.2646 55.1932 32.7111 55.4336 32.8141 55.5538C33.0717 55.8628 33.3292 55.8628 33.2091 55.5366C33.0717 55.2104 31.8354 54.6439 30.994 54.558C30.6162 54.5065 29.9809 54.5409 29.5859 54.6095Z" fill="white"/>
<path d="M30.2213 58.7983C30.2213 58.9185 30.3759 59.4507 30.5648 60C30.7536 60.5494 30.8738 61.0301 30.8395 61.0644C30.8052 61.0987 30.5991 60.6352 30.3759 60.0172C30.1527 59.3992 29.9123 58.8841 29.8436 58.8841C29.6203 58.8841 29.6719 59.0901 30.2557 60.4635C30.8223 61.7854 30.9597 61.9228 31.389 61.6481C31.5607 61.5451 31.5779 61.2876 31.4405 60.412C31.1658 58.8155 31.2516 58.4034 31.5263 59.897C31.8011 61.4592 31.8869 61.6824 32.1102 61.5451C32.196 61.4936 32.2819 61.5279 32.2819 61.6481C32.2819 62.1116 32.4879 61.5966 32.797 60.4464C32.9859 59.691 33.0374 59.1931 32.9344 59.1245C32.7112 58.9871 32.694 59.0043 32.4879 60.2575L32.299 61.3734L32.4021 60.0343C32.4536 59.176 32.4192 58.7125 32.299 58.7125C32.2132 58.7125 32.093 59.1588 32.0587 59.691L32.0071 60.6867L31.9728 59.6052L31.9385 58.5408L31.0799 58.558C30.5476 58.5751 30.2213 58.6781 30.2213 58.7983Z" fill="white"/>
<path d="M29.1909 59.3135C29.1909 59.5367 30.599 62.1805 30.6676 62.0946C30.7878 61.9745 29.5172 59.2277 29.3455 59.2277C29.2596 59.2277 29.1909 59.262 29.1909 59.3135Z" fill="white"/>
<path d="M32.9857 60.292C32.8827 60.7899 32.7454 61.3907 32.6767 61.6311C32.505 62.3693 32.8999 61.7856 33.209 60.8757C33.5181 59.9487 33.5696 59.3993 33.3463 59.3993C33.2605 59.3993 33.1059 59.8113 32.9857 60.292Z" fill="white"/>
<path d="M28.5386 60.0859C28.2982 60.4807 28.4355 60.8412 29.0194 61.3734C29.2254 61.5623 29.5517 61.94 29.7406 62.2318C29.9294 62.5065 29.6719 62.3005 29.1739 61.7511C28.6588 61.2018 28.1951 60.7726 28.1265 60.7726C27.7315 60.7897 28.0921 61.3563 28.9335 62.0773C29.4486 62.5237 29.8436 62.9357 29.7921 62.97C29.7577 63.0215 29.3113 62.6782 28.8133 62.2318C28.2467 61.734 27.8861 61.5108 27.8346 61.6481C27.8002 61.7683 27.9719 62.0086 28.2123 62.1803C28.4527 62.352 28.8305 62.661 29.0537 62.8498L29.4486 63.2103L28.9335 62.9185C28.6588 62.7468 28.2638 62.5065 28.0749 62.3691C27.6457 62.0773 27.474 62.0773 27.474 62.3863C27.474 62.5237 27.8689 62.8498 28.3325 63.1073C29.2254 63.588 29.4315 63.9142 28.5557 63.4679C27.8346 63.0902 27.3022 62.9528 27.3022 63.1417C27.3022 63.2962 29.2254 64.2061 29.5517 64.2061C29.6375 64.2061 29.7062 64.0515 29.7062 63.8627C29.7062 63.6567 29.8608 63.2103 30.0325 62.8498L30.3759 62.2146L29.689 60.9786C29.3113 60.2919 28.9507 59.7425 28.882 59.7425C28.8133 59.7425 28.6588 59.897 28.5386 60.0859ZM29.3971 61.0301C29.483 61.2189 29.3628 61.1331 29.1224 60.8584C28.882 60.5666 28.6931 60.2576 28.6931 60.1717C28.6931 59.9829 29.1224 60.5151 29.3971 61.0301Z" fill="white"/>
<path d="M33.3292 61.0646C33.1403 61.6998 33.0201 62.2491 33.0544 62.3006C33.1575 62.3865 33.1403 62.4208 33.6726 61.2878C34.1019 60.3951 34.1534 59.9144 33.8271 59.9144C33.7413 59.9144 33.5181 60.4294 33.3292 61.0646Z" fill="white"/>
<path d="M33.7414 61.6309C33.4667 62.1974 33.295 62.6953 33.3465 62.7468C33.4839 62.8841 34.5142 61.236 34.5142 60.8927C34.5142 60.3433 34.2222 60.618 33.7414 61.6309Z" fill="white"/>
<path d="M34.2395 62.0945C33.5526 62.9528 33.4324 63.176 33.6385 63.176C33.8789 63.176 34.892 61.837 34.8233 61.6138C34.7889 61.5108 34.5314 61.734 34.2395 62.0945Z" fill="white"/>
<path d="M34.3596 62.85C34.0505 63.2277 33.8273 63.571 33.8616 63.6053C34.0162 63.777 35.201 62.747 35.201 62.4551C35.201 61.9744 34.9606 62.0774 34.3596 62.85Z" fill="white"/>
<path d="M30.6849 62.7641C30.4445 63.0044 30.5647 63.8799 30.8394 63.9829C31.1828 64.1203 31.4404 63.7426 31.3889 63.1761C31.3374 62.7641 30.9253 62.5237 30.6849 62.7641ZM31.2515 63.3477C31.2515 63.4336 31.1828 63.5194 31.0798 63.5194C30.9939 63.5194 30.9081 63.4336 30.9081 63.3477C30.9081 63.2447 30.9939 63.1761 31.0798 63.1761C31.1828 63.1761 31.2515 63.2447 31.2515 63.3477Z" fill="white"/>
<path d="M34.5484 63.5365C33.6727 64.1888 33.7414 64.3777 34.6858 63.9485C35.1322 63.7425 35.3726 63.5193 35.3726 63.3133C35.3726 62.9184 35.3898 62.9013 34.5484 63.5365Z" fill="white"/>
<path d="M32.4019 63.6225C32.3332 63.6911 32.2817 63.8971 32.2817 64.0688C32.2817 64.3435 32.2302 64.3435 31.9383 64.1718C31.4575 63.8628 31.0111 64.1718 30.9424 64.8413C30.908 65.2019 30.7707 65.4079 30.5474 65.4594C30.3242 65.528 30.2212 65.6997 30.2212 66.0602C30.2212 66.7126 30.5474 66.9358 30.8565 66.5066C30.9767 66.3349 31.303 66.1976 31.5605 66.1804C31.904 66.1804 32.0929 66.0431 32.2817 65.631C32.4191 65.322 32.6767 65.0645 32.8312 65.0645C33.1918 65.0645 33.4322 64.2748 33.1918 63.88C33.0029 63.571 32.5908 63.4508 32.4019 63.6225ZM33.1403 64.1031C33.1403 64.1546 33.0716 64.2405 32.9686 64.292C32.8827 64.3435 32.7969 64.3092 32.7969 64.2233C32.7969 64.1203 32.8827 64.0345 32.9686 64.0345C33.0716 64.0345 33.1403 64.0688 33.1403 64.1031ZM31.7666 65.0645C31.6636 65.2705 31.5262 65.4079 31.4747 65.3564C31.4403 65.3049 31.4919 65.116 31.6121 64.91C31.904 64.4637 32.0242 64.5838 31.7666 65.0645Z" fill="white"/>
<path d="M27.3022 64.0343C27.3022 64.2918 27.5083 64.3777 28.384 64.4978C30.0153 64.7382 29.9981 64.5322 28.3497 64.0343C27.3366 63.7253 27.3022 63.7253 27.3022 64.0343Z" fill="white"/>
<path d="M34.7373 64.1547C33.7757 64.4808 33.7929 64.7212 34.7545 64.7212C35.5787 64.7212 35.7332 64.6182 35.5615 64.189C35.4757 63.9487 35.3898 63.9487 34.7373 64.1547Z" fill="white"/>
<path d="M27.1649 64.9272C27.2164 65.0646 27.6629 65.1676 28.3841 65.2019C29.6204 65.2534 29.9466 65.0131 28.8992 64.8242C27.8174 64.6526 27.0962 64.7041 27.1649 64.9272Z" fill="white"/>
<path d="M34.1192 64.9957C33.8788 65.236 34.2222 65.4077 34.9606 65.4077C35.5101 65.4077 35.7161 65.339 35.7161 65.1502C35.7161 64.9614 35.5272 64.8927 34.9777 64.8927C34.5656 64.8927 34.1707 64.9442 34.1192 64.9957Z" fill="white"/>
<path d="M27.783 65.5279C27.4911 65.5794 27.3022 65.7168 27.3022 65.8713C27.3022 66.0258 27.4053 66.0944 27.5426 66.0429C27.6628 65.9914 28.1436 65.9056 28.6073 65.8541L29.4486 65.7683L28.5557 66.0601C27.5598 66.4034 27.1649 66.6781 27.4396 66.8498C27.5426 66.9013 28.0234 66.7983 28.5214 66.6095C29.7406 66.1288 29.7406 66.2661 28.5214 66.867C27.8689 67.176 27.5426 67.4335 27.5942 67.5708C27.6628 67.7425 27.8689 67.7082 28.4699 67.382C29.7406 66.7468 29.8608 66.6095 29.6719 65.9571C29.5345 65.4592 29.4658 65.4077 28.882 65.4249C28.5386 65.4421 28.0406 65.4936 27.783 65.5279Z" fill="white"/>
<path d="M33.999 65.717C33.999 65.8543 35.3555 66.438 35.6646 66.438C35.7848 66.438 35.699 65.9401 35.5788 65.8543C35.2525 65.6483 33.999 65.5453 33.999 65.717Z" fill="white"/>
<path d="M33.999 66.2663C33.999 66.5067 35.3555 67.3307 35.5444 67.2105C35.8707 67.0045 35.699 66.7985 34.9263 66.438C33.999 66.0431 33.999 66.0431 33.999 66.2663Z" fill="white"/>
<path d="M32.0072 66.5237C31.9385 66.661 31.9557 66.9872 32.0072 67.2276C32.1618 67.7941 32.8486 67.7426 32.9345 67.1589C33.0375 66.455 32.2304 65.9228 32.0072 66.5237ZM32.6254 67.1246C32.6254 67.2104 32.591 67.2962 32.5567 67.2962C32.5052 67.2962 32.4193 67.2104 32.3678 67.1246C32.3163 67.0216 32.3506 66.9529 32.4365 66.9529C32.5395 66.9529 32.6254 67.0216 32.6254 67.1246Z" fill="white"/>
<path d="M28.8133 67.4337C28.2295 67.7942 27.8174 68.189 27.8174 68.3607C27.8174 68.6869 28.075 68.7727 28.2467 68.4981C28.2982 68.4122 28.5901 68.1719 28.8992 67.9659C29.4486 67.5882 29.4486 67.5882 28.8133 68.2577C28.2123 68.8929 27.9891 69.3564 28.281 69.3564C28.3497 69.3564 28.7961 68.9959 29.2598 68.5324C30.1527 67.6912 30.1527 67.7599 29.2082 68.9616C28.8992 69.3736 28.6759 69.7856 28.7103 69.9058C28.7446 70.0088 29.0709 69.6998 29.4315 69.2191C30.3072 68.0002 30.3931 68.086 29.5517 69.3393C29.0022 70.1461 28.8992 70.3865 29.0881 70.541C29.2426 70.6783 29.38 70.5753 29.6032 70.1118C29.7577 69.7684 29.9294 69.5281 29.981 69.5796C30.0325 69.6311 29.9123 69.9744 29.7234 70.3521C29.483 70.8157 29.4315 71.0903 29.5517 71.159C29.7749 71.3135 29.7406 71.3478 30.2213 70.1633C30.4274 69.6139 30.6335 69.2019 30.6678 69.2363C30.7021 69.2706 30.5819 69.7856 30.3931 70.4036C29.9981 71.6912 30.0153 71.5882 30.2042 71.5882C30.3072 71.5882 30.5133 71.1075 30.685 70.5066C30.8395 69.9229 31.0112 69.5624 31.0284 69.6998C31.0627 69.8371 30.9769 70.335 30.8395 70.8157C30.6678 71.3478 30.6335 71.7255 30.7365 71.8285C30.9254 72.0174 30.9769 71.88 31.2173 70.5581C31.389 69.6311 31.4062 69.6311 31.3031 70.9015C31.2516 71.777 31.2688 72.1375 31.389 72.0174C31.492 71.9144 31.595 71.6569 31.6466 71.4165C31.7152 71.056 31.7152 71.0732 31.7496 71.5367C31.7839 72.4122 32.1102 72.2062 32.1445 71.2792L32.1617 70.4723L32.2304 71.1933C32.2819 71.674 32.3849 71.9315 32.5395 71.9315C32.7112 71.9315 32.7627 71.6912 32.7112 70.9358L32.6425 69.9573L32.8142 70.85C32.9859 71.674 33.0203 71.7255 33.3293 71.5367C33.7243 71.2963 33.7414 71.0045 33.398 70.0431C33.2606 69.6311 33.1748 69.2706 33.2091 69.2363C33.2435 69.2019 33.4152 69.5624 33.5869 70.0431C33.7586 70.5066 33.9647 70.9015 34.0334 70.9015C34.2566 70.9015 34.1879 70.5238 33.8273 69.7341C33.4152 68.8242 33.5182 68.8071 34.0162 69.6998C34.2566 70.129 34.4626 70.335 34.5657 70.232C34.6687 70.129 34.5141 69.7513 34.1707 69.2363L33.6384 68.4122L34.2394 69.0989C34.7545 69.6826 34.8576 69.7341 34.9606 69.4766C35.0465 69.2534 34.9091 68.9787 34.497 68.5324L33.9132 67.8972L34.4798 68.395C34.8404 68.7384 35.098 68.8414 35.201 68.7384C35.304 68.6354 35.098 68.3607 34.5657 67.9487L33.7586 67.3307L33.4495 67.8114C32.9001 68.7212 31.8183 68.9444 31.0112 68.3092C30.7708 68.1204 30.4789 68.0174 30.3759 68.086C30.2385 68.1547 30.2213 68.1375 30.29 68.0174C30.3759 67.8629 29.981 66.7641 29.8264 66.7813C29.8092 66.7985 29.3456 67.0732 28.8133 67.4337ZM30.2385 69.2363C30.0668 69.3908 30.0496 69.3736 30.1527 69.1332C30.2042 68.9616 30.3072 68.8757 30.3587 68.9272C30.4102 68.9787 30.3587 69.1161 30.2385 69.2363ZM32.2304 70.1633C32.1789 70.335 32.1445 70.232 32.1445 69.9573C32.1445 69.6654 32.1789 69.5453 32.2304 69.6483C32.2647 69.7684 32.2647 70.0088 32.2304 70.1633Z" fill="white"/>
<path d="M33.8271 66.9014C33.8443 67.1418 35.3554 68.1547 35.4584 68.0002C35.5099 67.9143 35.2524 67.6053 34.8746 67.3135C34.2221 66.7984 33.8271 66.6439 33.8271 66.9014Z" fill="white"/>
</svg>
