<svg width="30" height="19" viewBox="0 0 30 19" fill="none" xmlns="http://www.w3.org/2000/svg">
<path d="M10.575 18V16.35H10.525C9.7 17.75 8.25 18.35 6.6 18.35C2.7 18.35 0.8 15 0.8 11.425C0.8 7.95 2.725 4.725 6.525 4.725C8.05 4.725 9.55 5.375 10.35 6.65H10.4V0.149999H13.95V18H10.575ZM10.525 11.5C10.525 9.4 9.775 7.4 7.475 7.4C5.15 7.4 4.35 9.4 4.35 11.525C4.35 13.55 5.275 15.675 7.475 15.675C9.825 15.675 10.525 13.625 10.525 11.5ZM16.6332 18V0.149999H20.1832V6.65H20.2332C21.1082 5.325 22.7082 4.725 24.3082 4.725C26.8832 4.725 29.6582 6.8 29.6582 11.525C29.6582 16.275 26.8832 18.35 24.3082 18.35C22.4082 18.35 20.8332 17.775 20.0582 16.35H20.0082V18H16.6332ZM26.1082 11.55C26.1082 9.375 25.1832 7.4 23.0832 7.4C20.9832 7.4 20.0582 9.375 20.0582 11.55C20.0582 13.7 20.9832 15.675 23.0832 15.675C25.1832 15.675 26.1082 13.7 26.1082 11.55Z" fill="white"/>
</svg>
